/* XPM */
static char *_ff74597654a43bedc166b134ea93da27SfF4wLADxpzx4aw[] = {
/* columns rows colors chars-per-pixel */
"64 64 3 1 ",
"  c #FF00FF",
". c #BCF2F5",
"X c white",
/* pixels */
"                                                                ",
"         XXXXXXX                                                ",
"       XXXXXXXXXXX                                              ",
"      XXXX..XXXXXXX                                             ",
"     .XXXXXX..XXXXXX                                            ",
"     .XXXXXXXXXXXXXXX                                           ",
"    ...XXXXXXXXXXXXXX                                           ",
"   .X...XXX.XXXXXXXXXX XXXXX                                    ",
"   XX.........XXXXXX.XXXXXXXX                                   ",
"  .XXX..............X...XXXXXX                                  ",
"  XXXXX.................XXXXXX                                  ",
" .XXXXXXX...............XXXXXX                                  ",
" .XXX.XXXXXXXX..........XXXXXXXXX                               ",
" .XXX..XXXXXXXX.........XXXXXXXXXX                              ",
" .XXX...XXX...X.XX...........XXXXXX                             ",
" ..XXX.......X...XX..........XXXXXX                             ",
" ...XXX...........XX.XX....XXXXXXXX                             ",
" ..............X.....XXXXXXXXXXXXXX                             ",
"  .............XX....XXXXXXXXXXXXX.                             ",
"   ...................XXXXXXXXXXXX                              ",
"    ...................XXXXXXXXX..                              ",
"     ....... ...........XXX......                               ",
"              ..................                                ",
"               ...............                                  ",
"                                                                ",
"                                                                ",
"                                                                ",
"                                                                ",
"                                                                ",
"                                                                ",
"                                                                ",
"                                                                ",
"                                                                ",
"                                                                ",
"                                                                ",
"                                                                ",
"                                                                ",
"                                                                ",
"                                                                ",
"                                                                ",
"                                                                ",
"                                                                ",
"                                                                ",
"                                                                ",
"                                                                ",
"                                                                ",
"                                                                ",
"                                                                ",
"                                                                ",
"                                                                ",
"                                                                ",
"                                                                ",
"                                                                ",
"                                                                ",
"                                                                ",
"                                                                ",
"                                                                ",
"                                                                ",
"                                                                ",
"                                                                ",
"                                                                ",
"                                                                ",
"                                                                ",
"                                                                "
};
