/* XPM */
static char *_c5a7bec840541b9cdf5ef8404eff952LR8XqgN0Qi8oqHcx[] = {
/* columns rows colors chars-per-pixel */
"64 64 3 1 ",
"  c #FF00FF",
". c #BCF2F5",
"X c white",
/* pixels */
"                                                                ",
"                                                                ",
"                                                                ",
"                                                                ",
"                      XXXX                                      ",
"                   XXXXXXXX                                     ",
"                  XXXXXXXXXX  XXXXX                             ",
"                 XXXXXXXXXXXXXXXXXXXX                           ",
"                 X..XXXXXXX...XXXXXXXX                          ",
"                 .....XXXX.....XXXXXXX                          ",
"                X......XXX......XXXXXX                          ",
"       XXXXXXXXXXX......XXX.....XXXXXXXXXXXXX                   ",
"     XXXXXXXXXX.XXXX....XXXX....XXXXXXXXXXXXXX                  ",
"    XXXX.XXXXXX..XXX....XXXX....X.......XXXXXXX                 ",
"   XXXX...XX......XX....XXXX.............XXXXXXX                ",
"   XXX...XXX......XX...XXXXXX............XXXXXXXX               ",
"  XXXX...XXX.......X......XXX............XXXXXXXXXXXXXX         ",
"  ..XX...XXX.......X....................XXXXXXXXXXXXXXXX        ",
"  ..XX...XXX.........XXXX.XXXX.........XXXXX......XXXXXXXX      ",
"  ..XX....XX.......XXXXXXXXXXX..........X........XXXXXXXXXX     ",
"  ..XXX...........XXXXX.XXXXXXX................XXXXXXXXXXXXX    ",
"  ..XXX..........XXXXXX..XXXXXXX................XXXXXXXXXXXXX   ",
"  ...XX..........XXXXXX..XXXXXXXX...XXXX.........XXXXXXXXXXXX   ",
"  ....X..........XXXXXX......XXXXX.XXXXX.........XXXXXXXXXXXX   ",
"   ..............XXXXXXX..........X.XXXXX............XXXXXXXXX  ",
"    ..............XXXXXXX.........X..XXXXX........XXX..XXXXXXX  ",
"         ............XXX..........X..XXXXXX......XXXXXXXXXXXXX  ",
"          ........................X......XXX....XXXXXXXXXXXXXX  ",
"           .......................XX............XXXX.XXXXXXXX   ",
"            .......................XX...........XXXX..XXXXXXX   ",
"                  ...................X..........XXXX..XXXXXXXX  ",
"                   ............. .................XX......XXXX  ",
"                    ...........  ...........................XX  ",
"                        ......    ...........................X  ",
"                                   ..........................X  ",
"                                    ..........  .............   ",
"                                     ........    ...........    ",
"                                       .....      .........     ",
"                                                     .....      ",
"                                                                ",
"                                                                ",
"                                                                ",
"                                                                ",
"                                                                ",
"                                                                ",
"                                                                ",
"                                                                ",
"                                                                ",
"                                                                ",
"                                                                ",
"                                                                ",
"                                                                ",
"                                                                ",
"                                                                ",
"                                                                ",
"                                                                ",
"                                                                ",
"                                                                ",
"                                                                ",
"                                                                ",
"                                                                ",
"                                                                ",
"                                                                ",
"                                                                "
};
