/* XPM */
static char *caa84508469a47fd944023706d414603YX6VAfetYCCNKCmA[] = {
/* columns rows colors chars-per-pixel */
"64 64 3 1 ",
"  c #FF00FF",
". c #BCF2F5",
"X c white",
/* pixels */
"                                                                ",
"                 XXXXXXX                                        ",
"                XXXXXXXXXX                                      ",
"            XX.XXXXXXXXXXXXX                                    ",
"           XX.XXXXXXXXXXXXXXX                                   ",
"         .XX.XXXXXXXXXXXXXXXXX                                  ",
"         .XX.XXXXXXXXXXXXXXXXXX   XXXXXXX                       ",
"        .XXX.XXXXXXXXXXXXXXXXXXX XXXXXXXXX                      ",
"        ..XX.XXXXXX....XXXXXXXX.....XXXXXXX                     ",
"        ..XX..XXXX......XXXXXX.......XXXXXXX                    ",
"     .........XXX.......XXXXXX........XXXXXXX                   ",
"    ........................XX........XXXXXXXX                  ",
"   .....X.............................XXXXXXXX                  ",
"  .....XXX...................X....XXXXXXXXXXXXXX                ",
"  .....XXXX.............XXXXXX...XXXXXXXXXXXXXXXX               ",
" ......XXXXX........XXXXXXXXXX.............XXXXXXX              ",
" ......XXXXXX......XX.XXXXXXXXX............XXXXXXXX             ",
"  .........XXXX...XXX..XXXXXXXX............XXXXXXXX             ",
"  ...........XXXX.XXX..XXXXXXXX............XXXXXXXX             ",
"   ..........XXXX..XX......XXXXX...........XXXXXXXX             ",
"    .........XXXX..XXX...........XXX.XXXXXXXXXXXXXX             ",
"     .........XXX....XX.........XXXXXXXXXXXXXXXXXXX             ",
"       ........................XXXXXXXXXXXXXXXXXXXX             ",
"        ........................XXXXXXXXXXXXXXXXXXX             ",
"         ......... .............XXXXXXXXXXXXXXXXXXX             ",
"                    ................XXXXXXXXXXXXXXX             ",
"                     .................XXXXXX......              ",
"                      ...........................               ",
"                        ......   ...............                ",
"                                  .......                       ",
"                                                                ",
"                                                                ",
"                                                                ",
"                                                                ",
"                                                                ",
"                                                                ",
"                                                                ",
"                                                                ",
"                                                                ",
"                                                                ",
"                                                                ",
"                                                                ",
"                                                                ",
"                                                                ",
"                                                                ",
"                                                                ",
"                                                                ",
"                                                                ",
"                                                                ",
"                                                                ",
"                                                                ",
"                                                                ",
"                                                                ",
"                                                                ",
"                                                                ",
"                                                                ",
"                                                                ",
"                                                                ",
"                                                                ",
"                                                                ",
"                                                                ",
"                                                                ",
"                                                                ",
"                                                                "
};
