/* XPM */
static char *_a39e354f2c44953b18c1d2c5b0cf5fcZDaHWwhdBYacnFJI[] = {
/* columns rows colors chars-per-pixel */
"64 64 3 1 ",
"  c #FF00FF",
". c #BCF2F5",
"X c white",
/* pixels */
"                                                                ",
"        XXXXX                                                   ",
"       XXXXXXX                                                  ",
"      .XXXXXXXX                                                 ",
"      ..XXXXXXXX                                                ",
"     X...XXX...XXXXXXX                                          ",
"    .XX........XXXXXXXX                                         ",
"    .XXX..........XXXXXX                                        ",
"    ...............XXXXXX                                       ",
"   X...XXX.......XXXXXXXXXXXX                                   ",
"  XXXXXXXXX.XXX.XXXXXXXXXXXXXX                                  ",
" .XXX.XXXXXXXXX.XXXXXXX..XXXXXX                                 ",
" .XXX..XXXXXXXX..XXXXX...XXXXXX                                 ",
" ..XX...XXXXXXX...XXX.XXXXXXXXXX                                ",
" ...XX...XXXXXXX.....XXXXXXXXXXX                                ",
" .........XXXXX.X....XXXXXXXXXXX                                ",
" ..........XXX.XXXXX..XXXXXXXXXX                                ",
"  ............XXXXXXX..XXX......                                ",
"   ..........XXXXXXXX..........                                 ",
"    .......XXXXXXX.X..........                                  ",
"         ..XXXXX............                                    ",
"         ...XXX............                                     ",
"          ..... ...........                                     ",
"           ...   .........                                      ",
"                  .......                                       ",
"                                                                ",
"                                                                ",
"                                                                ",
"                                                                ",
"                                                                ",
"                                                                ",
"                                                                ",
"                                                                ",
"                                                                ",
"                                                                ",
"                                                                ",
"                                                                ",
"                                                                ",
"                                                                ",
"                                                                ",
"                                                                ",
"                                                                ",
"                                                                ",
"                                                                ",
"                                                                ",
"                                                                ",
"                                                                ",
"                                                                ",
"                                                                ",
"                                                                ",
"                                                                ",
"                                                                ",
"                                                                ",
"                                                                ",
"                                                                ",
"                                                                ",
"                                                                ",
"                                                                ",
"                                                                ",
"                                                                ",
"                                                                ",
"                                                                ",
"                                                                ",
"                                                                "
};
