/* XPM */
static char *fa3d63fccaf04a2af94313bba964cc47hiOBo5pr8BTjr7AZ[] = {
/* columns rows colors chars-per-pixel */
"64 64 3 1 ",
"  c #FF00FF",
". c #BCF2F5",
"X c white",
/* pixels */
"                                                                ",
"                        XXXXX                                   ",
"                       XXXXXXX                                  ",
"             XXXX    .XXXXXXXXX                                 ",
"            XXXXXXXX.XXXXXXXXXXX                                ",
"           XXXXXXXX...XXXXXXXXXX                                ",
"       XXXXXXXXXXXX...XXXXXXXXXX                                ",
"      XXXXXXXXXXXXX.......XXXX.X                                ",
"    XXXXX.XXXXX.XXX............XX                               ",
"   XXXXXX..XXX.................XXXXXXXX                         ",
"  XXXXXXX...XXX...............XXXXXXXXXX                        ",
" XXXXXXXXX..XXXX................XXXXXXXXX                       ",
" XXXXXXXXX......X................XXXXXXXXX                      ",
" X.XXX.XXXX.....XXX...............XXXXXXXX                      ",
" ...XX.XXXXX...XXXXX............XXXXXXXXXX                      ",
" ....X..XXXXX.XXXXXXX...X......XXXXXXXXXXX                      ",
"  .......XXXX..XXXXXXX...X....XXXXXXXXXXXX                      ",
"   .........X..XXXXXXXX..XX..XXXXXXXXXXXXX                      ",
"    ...............XXXX..........XXXXXXXXX                      ",
"        ..... ......XXX..........XXXXXXXXX                      ",
"         ...   ......XX..........XXXXXXXXX                      ",
"                .....XXX..........XXXXXXXX                      ",
"                   ...............XXXXXXX                       ",
"                    ..................XXX                       ",
"                     ...................                        ",
"                      ... .............X                        ",
"                           ............                         ",
"                            ..........                          ",
"                             ........                           ",
"                                                                ",
"                                                                ",
"                                                                ",
"                                                                ",
"                                                                ",
"                                                                ",
"                                                                ",
"                                                                ",
"                                                                ",
"                                                                ",
"                                                                ",
"                                                                ",
"                                                                ",
"                                                                ",
"                                                                ",
"                                                                ",
"                                                                ",
"                                                                ",
"                                                                ",
"                                                                ",
"                                                                ",
"                                                                ",
"                                                                ",
"                                                                ",
"                                                                ",
"                                                                ",
"                                                                ",
"                                                                ",
"                                                                ",
"                                                                ",
"                                                                ",
"                                                                ",
"                                                                ",
"                                                                ",
"                                                                "
};
