/* XPM */
static char *out[] = {
/* columns rows colors chars-per-pixel */
"32 32 18 1 ",
"  c #FF00FF",
". c #120022",
"X c #320632",
"o c #2C2C2C",
"O c #4D0F0A",
"+ c #7D311A",
"@ c #560B28",
"# c #3F4B4E",
"$ c #B05F28",
"% c #EC8D2F",
"& c #F2BF57",
"* c #2E5887",
"= c #8173A8",
"- c #7E8E93",
"; c #FCDCA0",
": c #C3CBDB",
"> c #FBFFE2",
", c gray99",
/* pixels */
"            +++++               ",
"          ++++++O++             ",
"          +++++OOO+             ",
"         ++++++%%%O+            ",
"         ++++..;;.O+            ",
"        +++++>*;;*O+            ",
"        ++++%;;;;;O+ oo         ",
"        +++++;;;;;O+ &o         ",
"        +++++%;;;%O+&$          ",
"        ++++++%%OO+&$           ",
"        +$$#-+;;-#$$            ",
"     --o&&&o#-%;;-#$$           ",
"     ---o&&o#------o$           ",
"     #--ooo###-----oo##         ",
"    --#-    ######oo###         ",
"    ---#   ,##----  ####        ",
"    ---   :##------  #..        ",
"    ..-  ,XX&>X@@X&X ...        ",
"    ... ,,XX$&@@@@$X  ..        ",
"    .. ::XX.X@@@@@X.            ",
"      ::=X..@@@@@@..            ",
"     ,,,:X..@@@@@@..            ",
"     ,,::X..@@@@@...            ",
"     ,,,X...@@XX@..$$           ",
"        X..$@XXX@.$&&           ",
"        X.$&@XX@XX&&&           ",
"       XXX&&@XXX  #&&           ",
"       XX##&&XX  -##            ",
"       XX###XX  ---             ",
"        X###    --              ",
"        ###     ##              ",
"        ##                      "
};
