/* XPM */
static char *c74adb2615b045f6b2378343173382bcFM2DftBmFXh5yLBx[] = {
/* columns rows colors chars-per-pixel */
"32 32 4 1 ",
"  c #A14744",
". c #B0664D",
"X c #B96E54",
"o c #CF9E6E",
/* pixels */
"XXXXXXXXXXXXXXXXXXXXXXXXXXXXXXXX",
"XXXXXXXXXXXXXXXXXXXXXXXXXXXXXXXX",
"XXXXXXX......XXXXXXXXXX......XXX",
"XXXXX..XXXXXX..XXXXXX..XXXXXX..X",
".....XXXXXXXXXX......XXXXXXXXXX.",
"XXXXXXXXXXXXXXXXXXXXXXXXXXXXXXXX",
"XXXXXXXXXXXXXXXXXXXXXXXXXXXXXXXX",
"XXXXXXX......XXXXXXXXXX......XXX",
"XXXXX..........XXXXXX..........X",
".......XXXXXX..........XXXXXX...",
".....XXXXXXXXXX......XXXXXXXXXX.",
"XXXXXXXXXXXXXXXXXXXXXXXXXXXXXXXX",
"XXXXXXXXXXXXXXXXXXXXXXXXXXXXXXXX",
"XXXXXXXXXXXXXXXXXXXXXXXXXXXXXXXX",
"XXXXXXXXXXXXXXXXXXXXXXXXXXXXXXXX",
"XXXXXXXXXXXXXXXXXXXXXXXXXXXXXXXX",
"XXXXXXXXXXXXXXXXXXXXXXXXXXXXXXXX",
"XXXXXXXXXXXXXXXXXXXXXXXXXXXXXXXX",
"XXXXXXX......XXXXXXXXXX......XXX",
"XXXXX..XXXXXX..XXXXXX.  XXXXX..X",
".....XXXXXXXXXX...... XXoXXXXXX.",
"XXXXXXXXXXXXXXXXXXXXX XXoXXXXXXX",
"XXXXXXXXXXXXXXXXXXXXXXooXXXXXXXX",
"XXXXXXX......XXXXXXXXXX......XXX",
"XXXXX..........XXXXXX..........X",
".......XXXXXX..........XXXXXX...",
".....XXXXXXXXXX......XXXXXXXXXX.",
"XXXXXXXXXXXXXXXXXXXXXXXXXXXX XXX",
"XXXXXXXXXXXXXXXXXXXXXXXXXXXXoXXX",
"XXXXXXXXXXXXXXXXXXXXXXXXXXXXXXXX",
"XXXXXXXXXXXXXXXXXXXXXXXXXXXXXXXX",
"                                "
};
