/* XPM */
static char * xpm_data[] = {
"32 32 3 1",
". c #008000",
"O c #964b00",
"o c #643200",
"................................",
"................................",
"................................",
"................................",
"....OOOOOOOOOOOOOOOOOOOOOOOOO...",
"....OOOOOOOOOOOOOOOOOOOOOOOOO...",
"....OOOOOOOOOOOOOOOOOOOOOOOOO...",
"....OOO...................OOO...",
"....OOO...................OOO...",
"....OOO...................OOO...",
"....OOO...................OOO...",
"....OOO...................OOO...",
"....OOO.....ooooooooo.....OOO...",
"....OOO.....ooooooooo.....OOO...",
"....OOO.....ooooooooo.....OOO...",
"....OOO.....ooooooooo.....OOO...",
"....OOO.....ooooooooo.....OOO...",
"....OOO.....ooooooooo.....OOO...",
"....OOO.....ooooooooo.....OOO...",
"....OOO.....ooooooooo.....OOO...",
"....OOO.....ooooooooo.....OOO...",
"....OOO.....ooooooooo.....OOO...",
"....OOO.....ooooooooo.....OOO...",
"....OOO.....ooooooooo.....OOO...",
"....OOO.....ooooooooo.....OOO...",
"....OOO.....ooooooooo.....OOO...",
"....OOOOOOOOoooooooooOOOOOOOO...",
"....OOOOOOOOoooooooooOOOOOOOO...",
"....OOOOOOOOoooooooooOOOOOOOO...",
"................................",
"................................",
"................................"
};
