/* XPM */
static char *de954d926c774d11a590c8a0bc29ef05el1r9JJHMvaCrtn7[] = {
/* columns rows colors chars-per-pixel */
"32 32 9 1 ",
"  c #a14744",
". c #211F30",
"X c #076029",
"o c #A14744",
"O c #B0664D",
"+ c #B96E54",
"@ c #28860F",
"# c #72A11D",
"$ c #A4CC42",
/* pixels */
"$$$$$$$$$$$$$$$$$$$$$$$$$$$$$$$$",
"################################",
"#########$######################",
"################################",
"###################$############",
"###########################$####",
"################################",
"@###############@###############",
"@#@@####@#######@####@@#@#######",
"X#@@####@#######X####@@#@#######",
".@#####@.#####@#.@#####@.#@#####",
"..@@@@@..@#####@..@@@@@..@#####@",
"oo.....oo.@@@@@.oo.....oo.@@@@@.",
"++ooooo++o.....o++ooooo++o.....o",
"++++++++++ooooo+++++++++++ooooo+",
"++++++++++++++++++++++++++++++++",
"OOO++++++++++OOOOOO++++++++++OOO",
"+++OO++++++OO++++++OO++++++OO+++",
"+++++OOOOOO++++++++++OOOOOO+++++",
"++++++++++++++++++++++++++++++++",
"++++++++++++++++++++++++++++++++",
"OOO++++++++++OOOOOO++++++++++OOO",
"OOOOO++++++OOOOOOOOOO++++++OOOOO",
"+++OOOOOOOOOO++++++OOOOOOOOOO+++",
"+++++OOOOOO++++++++++OOOOOO+++++",
"++++++++++++++++++++++++++++++++",
"++++++++++++++++++++++++++++++++",
"++++++++++++++++++++++++++++++++",
"++++++++++++++++++++++++++++++++",
"++++++++++++++++++++++++++++++++",
"++++++++++++++++++++++++++++++++",
"                                "
};
