/* XPM */
static char * xpm_data[] = {
"32 32 2 1",
". c None",
"G c #32c832",
"................................",
"................................",
"................................",
"................................",
"................................",
"................................",
"................................",
"................................",
"........GGGGGGGGGGGGGGGGG.......",
"........GGGGGGGGGGGGGGGGG.......",
"........GGGGGGGGGGGGGGGGG.......",
"........GGGGGGGGGGGGGGGGG.......",
"........GGGGGGGGGGGGGGGGG.......",
"........GGGGGGGGGGGGGGGGG.......",
"........GGGGGGGGGGGGGGGGG.......",
"........GGGGGGGGGGGGGGGGG.......",
"........GGGGGGGGGGGGGGGGG.......",
"........GGGGGGGGGGGGGGGGG.......",
"........GGGGGGGGGGGGGGGGG.......",
"........GGGGGGGGGGGGGGGGG.......",
"........GGGGGGGGGGGGGGGGG.......",
"........GGGGGGGGGGGGGGGGG.......",
"........GGGGGGGGGGGGGGGGG.......",
"........GGGGGGGGGGGGGGGGG.......",
"........GGGGGGGGGGGGGGGGG.......",
"........GGGGGGGGGGGGGGGGG.......",
"........GGGGGGGGGGGGGGGGG.......",
"........GGGGGGGGGGGGGGGGG.......",
"........GGGGGGGGGGGGGGGGG.......",
"................................",
"................................",
"................................"
};
