/* XPM */
static char * xpm_data[] = {
"32 32 2 1",
". c None",
"B c #3232c8",
"................................",
"................................",
"................................",
"................................",
"................................",
"................................",
"................................",
"................................",
"........BBBBBBBBBBBBBBBBB.......",
"........BBBBBBBBBBBBBBBBB.......",
"........BBBBBBBBBBBBBBBBB.......",
"........BBBBBBBBBBBBBBBBB.......",
"........BBBBBBBBBBBBBBBBB.......",
"........BBBBBBBBBBBBBBBBB.......",
"........BBBBBBBBBBBBBBBBB.......",
"........BBBBBBBBBBBBBBBBB.......",
"........BBBBBBBBBBBBBBBBB.......",
"........BBBBBBBBBBBBBBBBB.......",
"........BBBBBBBBBBBBBBBBB.......",
"........BBBBBBBBBBBBBBBBB.......",
"........BBBBBBBBBBBBBBBBB.......",
"........BBBBBBBBBBBBBBBBB.......",
"........BBBBBBBBBBBBBBBBB.......",
"........BBBBBBBBBBBBBBBBB.......",
"........BBBBBBBBBBBBBBBBB.......",
"........BBBBBBBBBBBBBBBBB.......",
"........BBBBBBBBBBBBBBBBB.......",
"........BBBBBBBBBBBBBBBBB.......",
"........BBBBBBBBBBBBBBBBB.......",
"................................",
"................................",
"................................"
};
