/* XPM */
static char * xpm_data[] = {
"32 32 3 1",
". c None",
"B c #3232c8",
"W c #ffffff",
"................................",
"................................",
"................................",
"................................",
"................................",
"................................",
"................................",
"................................",
"........BBBBBBBBBBBBBBBBB.......",
"........BBBBBBBBBBBBBBBBB.......",
"........BBBBBBBBBBBBBBBBB.......",
"........BBBBBBBBBBBBBBBBB.......",
"........BBBBBBBBBBBBBBBBB.......",
"........BBBBBBBBBBBBBBBBB.......",
"........BBBBBBBBBBBBBBBBB.......",
"........BBBBBBBBBBBBBBBBB.......",
"........BBBBBBBBBBBBBBBBB.......",
"........BBBBBBBBBBBBBBBBB.......",
"........BBBBBBBBBBBBBBBBB.......",
"........BBBBBBBBBBBBBBBBB.......",
"........BBBBBBBWWWBBBBBBB.......",
"........BBBBBWWWWWWWBBBBB.......",
"........BBBBBWWWWWWWBBBBB.......",
"........BBBBWWWWWWWWWBBBB.......",
"........BBBBWWWWWWWWWBBBB.......",
"........BBBBWWWWWWWWWBBBB.......",
"........BBBBBWWWWWWWBBBBB.......",
"........BBBBBWWWWWWWBBBBB.......",
"........BBBBBBBWWWBBBBBBB.......",
"................................",
"................................",
"................................"
};
