/* XPM */
static char * xpm_data[] = {
"32 32 2 1",
". c None",
"R c #c83232",
"................................",
"................................",
"................................",
"................................",
"................................",
"................................",
"................................",
"................................",
"........RRRRRRRRRRRRRRRRR.......",
"........RRRRRRRRRRRRRRRRR.......",
"........RRRRRRRRRRRRRRRRR.......",
"........RRRRRRRRRRRRRRRRR.......",
"........RRRRRRRRRRRRRRRRR.......",
"........RRRRRRRRRRRRRRRRR.......",
"........RRRRRRRRRRRRRRRRR.......",
"........RRRRRRRRRRRRRRRRR.......",
"........RRRRRRRRRRRRRRRRR.......",
"........RRRRRRRRRRRRRRRRR.......",
"........RRRRRRRRRRRRRRRRR.......",
"........RRRRRRRRRRRRRRRRR.......",
"........RRRRRRRRRRRRRRRRR.......",
"........RRRRRRRRRRRRRRRRR.......",
"........RRRRRRRRRRRRRRRRR.......",
"........RRRRRRRRRRRRRRRRR.......",
"........RRRRRRRRRRRRRRRRR.......",
"........RRRRRRRRRRRRRRRRR.......",
"........RRRRRRRRRRRRRRRRR.......",
"........RRRRRRRRRRRRRRRRR.......",
"........RRRRRRRRRRRRRRRRR.......",
"................................",
"................................",
"................................"
};
