/* XPM */
static char * xpm_data[] = {
"32 32 2 1",
". c None",
"Y c #c8c832",
"................................",
"................................",
"................................",
"................................",
"................................",
"................................",
"................................",
"................................",
"........YYYYYYYYYYYYYYYYY.......",
"........YYYYYYYYYYYYYYYYY.......",
"........YYYYYYYYYYYYYYYYY.......",
"........YYYYYYYYYYYYYYYYY.......",
"........YYYYYYYYYYYYYYYYY.......",
"........YYYYYYYYYYYYYYYYY.......",
"........YYYYYYYYYYYYYYYYY.......",
"........YYYYYYYYYYYYYYYYY.......",
"........YYYYYYYYYYYYYYYYY.......",
"........YYYYYYYYYYYYYYYYY.......",
"........YYYYYYYYYYYYYYYYY.......",
"........YYYYYYYYYYYYYYYYY.......",
"........YYYYYYYYYYYYYYYYY.......",
"........YYYYYYYYYYYYYYYYY.......",
"........YYYYYYYYYYYYYYYYY.......",
"........YYYYYYYYYYYYYYYYY.......",
"........YYYYYYYYYYYYYYYYY.......",
"........YYYYYYYYYYYYYYYYY.......",
"........YYYYYYYYYYYYYYYYY.......",
"........YYYYYYYYYYYYYYYYY.......",
"........YYYYYYYYYYYYYYYYY.......",
"................................",
"................................",
"................................"
};
