/* XPM */
static char *_8d7edc1334a444bbc6f08e253cb811bkcCUJjsGuy3rGbnU[] = {
/* columns rows colors chars-per-pixel */
"32 32 27 1 ",
"  c #FF00FF",
". c #2E1E22",
"X c #323234",
"o c #5C0000",
"O c #5C2E00",
"+ c #7C003F",
"@ c #4D3B39",
"# c #534721",
"$ c #545456",
"% c #705654",
"& c #767678",
"* c #9A003F",
"= c #C5003F",
"- c #964F00",
"; c #9D704C",
": c #8F7772",
"> c #D7906E",
", c #928A8C",
"< c #979799",
"1 c #B7A099",
"2 c #B7B7BB",
"3 c #EEBE93",
"4 c #FFE1AF",
"5 c gray85",
"6 c #D9D9DD",
"7 c gray95",
"8 c white",
/* pixels */
"                                ",
"              @%%%@             ",
"             @%:::%@            ",
"            @@@@@@@@@           ",
"          @@%%:::::%%@@         ",
"         @%:1:::::::1:%@        ",
"        @%:::1111111:::%@       ",
"       @%::::::111::::::%@      ",
"       @%:%%::%:::%::%%:%@      ",
"      @%@%::%:%%:%%:%::%@%@     ",
"      @@%::%444444444%::%@@     ",
"      @@::%44444444444%::@@     ",
"      @%::3444444444443::%@     ",
"      @%1:3###44444###3:1%@     ",
"      @%1:#5.6444446.5#:1%@     ",
"      @%::#7.,44444,.7#::%@     ",
"      @%::38OO44444OO83::%@     ",
"       @%:>3--44444--3>:%@      ",
"       @%:X>344444443>X:%@      ",
"       X@%<#;>33333>;#<%@X      ",
"      X&2@<&#########&2@2&X     ",
"      X><<&X&<23332<&X234$X     ",
"     #%&&;X&262<&<262&#>3;#     ",
"     #%%X#X$<2<&&&<2<$#34&X     ",
"      ##  o%$&&$$$&&$%#12<X     ",
"         o+*%%%&&&%%%++11:X     ",
"         o*==+&262&+**+::%#     ",
"          o==*=<2<=*=*o###      ",
"           X<*====*+&X          ",
"           X662Xo#%%%#          ",
"           #%::%  ###           ",
"           #:11%                "
};
