/* XPM */
static char *c5e1f446074844aecc3db803c8b13ad2B8XK7JdCm7VqCY6x[] = {
/* columns rows colors chars-per-pixel */
"32 32 6 1 ",
"  c #211F30",
". c #48475B",
"X c #62677A",
"o c #858D99",
"O c #AFBBC3",
"+ c #D8E1E4",
/* pixels */
"                                ",
"                                ",
"                                ",
"                                ",
"                                ",
"                                ",
"                                ",
"                                ",
"                                ",
"                                ",
"                                ",
"                                ",
"                                ",
"                                ",
"                                ",
"                                ",
"                                ",
"                                ",
"                                ",
"                                ",
"                                ",
"                                ",
"                                ",
"                                ",
"                                ",
"oOOOOOOOOOOOO+ oOOOOOOOOOOOOOO+ ",
"XooooooooooooO XooooooooooooooO ",
"XoooooooooOOoO XoXXoooooooooooO ",
"XoooooooooOOoO XoXXooooo+oooooO ",
"XoXooooooooooO XoooooooooooOooO ",
"XooooooooooooO XooooooooooooooO ",
".XXXXXXXXXXXXo .XXXXXXXXXXXXXXo "
};
