/* XPM */
static char *_c8e5384b7d443909cc5212bee738c4eFjauL6eTyAN8xWol[] = {
/* columns rows colors chars-per-pixel */
"32 32 44 1 ",
"  c #FF00FF",
". c #201E30",
"X c #201F30",
"o c #211F30",
"O c #373747",
"+ c #3A3A4A",
"@ c #3F3F4E",
"# c #494A58",
"$ c #4B4B59",
"% c #4E4F5D",
"& c #4F5260",
"* c #5D606F",
"= c #5E616E",
"- c #6E717C",
"; c #6C717E",
": c #7B818C",
"> c #7A818D",
", c #7F8691",
"< c #858D99",
"1 c #878F9B",
"2 c #8E939C",
"3 c #8C95A0",
"4 c #8F98A3",
"5 c #929AA5",
"6 c #979FA9",
"7 c #96A0AA",
"8 c #97A1AB",
"9 c #9AA0A8",
"0 c #9CA6B0",
"q c #A4AFB8",
"w c #A5AFB8",
"e c #A8B0B7",
"r c #AAB0B7",
"t c #A7B2BB",
"y c #AEB5BC",
"u c #ACB6BE",
"i c #ACB8C0",
"p c #B1BDC5",
"a c #B5BFC6",
"s c #B6C2C9",
"d c #B9C4CB",
"f c #BBC4CB",
"g c #C6D0D5",
"h c #CDD7DB",
/* pixels */
"                                ",
"                                ",
"                                ",
"                                ",
"                                ",
"                                ",
"                                ",
"                                ",
"                                ",
"                                ",
"                                ",
"                                ",
"                                ",
"                                ",
"                                ",
"                                ",
"                                ",
"                                ",
"      ..              ..        ",
"      $$              $$        ",
"    .$22$.          .$22$.      ",
"    .%rr%.          .%rr%.      ",
"    .%rr%.          .%rr%.      ",
"    $-yr*O          $-yr*O      ",
"  .$2yaq,*O.      .$2yaq,*O.    ",
"  .%rhfq4-+.      .%rhfq4-+.    ",
"  .%rhfq4-+.      .%rhfq4-+.    ",
"  $-ygst8:&O      $-ygst8:&O    ",
".$2yaspit8:*O.  .$2yaspit8:*O.  ",
".$9fyqqqq03-+.  .$9fyqqqq03-+.  ",
".@:6544443<-+.  .@:6544443<-+.  ",
".+-<<<<<<<<-+.  .+-<<<<<<<<-+.  "
};
