/* XPM */
static char * xpm_data[] = {
"32 32 3 1",
"L c #646464",
"l c #787878",
"d c #323232",
"dddddddddddddLLLdddddddddddddLLL",
"dllllllllllldLLLdllllllllllldLLL",
"dllllllllllldLLLdllllllllllldLLL",
"dllllllllllldLLLdllllllllllldLLL",
"dllllllllllldLLLdllllllllllldLLL",
"dllllllllllldLLLdllllllllllldLLL",
"dddddddddddddLLLdddddddddddddLLL",
"LLLLLLLLLLLLLLLLLLLLLLLLLLLLLLLL",
"dddddddddddddLLLdddddddddddddLLL",
"dllllllllllldLLLdllllllllllldLLL",
"dllllllllllldLLLdllllllllllldLLL",
"dllllllllllldLLLdllllllllllldLLL",
"dllllllllllldLLLdllllllllllldLLL",
"dllllllllllldLLLdllllllllllldLLL",
"dddddddddddddLLLdddddddddddddLLL",
"LLLLLLLLLLLLLLLLLLLLLLLLLLLLLLLL",
"dddddddddddddLLLdddddddddddddLLL",
"dllllllllllldLLLdllllllllllldLLL",
"dllllllllllldLLLdllllllllllldLLL",
"dllllllllllldLLLdllllllllllldLLL",
"dllllllllllldLLLdllllllllllldLLL",
"dllllllllllldLLLdllllllllllldLLL",
"dddddddddddddLLLdddddddddddddLLL",
"LLLLLLLLLLLLLLLLLLLLLLLLLLLLLLLL",
"dddddddddddddLLLdddddddddddddLLL",
"dllllllllllldLLLdllllllllllldLLL",
"dllllllllllldLLLdllllllllllldLLL",
"dllllllllllldLLLdllllllllllldLLL",
"dllllllllllldLLLdllllllllllldLLL",
"dllllllllllldLLLdllllllllllldLLL",
"dddddddddddddLLLdddddddddddddLLL",
"LLLLLLLLLLLLLLLLLLLLLLLLLLLLLLLL"
};
