/* XPM */
static char *out[] = {
/* columns rows colors chars-per-pixel */
"32 32 7 1 ",
"  c #211F30",
". c #843346",
"X c #A14744",
"o c #B96E54",
"O c #CF9E6E",
"+ c #E4C997",
"@ c #FBDFB1",
/* pixels */
"                                ",
"                                ",
"                                ",
"                                ",
"                                ",
"                                ",
"                                ",
"                                ",
"                                ",
"                                ",
"                                ",
"                                ",
"                                ",
"                                ",
"                                ",
"                                ",
"                                ",
"                                ",
"                                ",
"                                ",
"                                ",
"                                ",
"                                ",
"                                ",
"                                ",
"                     Oo O+++++@ ",
"                     oX oXXXXX+ ",
"                     oX oXoooo+ ",
"                     oX oXOXXX+ ",
"                     oX oXOooX+ ",
"                     oX oXXXXX+ ",
"                     X. XoooooO ",
};
