/* XPM */
static char *dbd3d85184354b69f92eefc7423128c5hE9yMbW437YBX6jI[] = {
/* columns rows colors chars-per-pixel */
"32 32 5 1 ",
"  c #211F30",
". c #843346",
"X c #A14744",
"o c #B96E54",
"O c #CF9E6E",
/* pixels */
"oooXXX.X                        ",
"OoXXXXX.                        ",
"OOoXXXXX                        ",
"OOoXXXXX                        ",
"OOoXoXXX                        ",
"OOoooXXX                        ",
"OooooXXX                        ",
"OooooXXX                        ",
"OooooXXX                        ",
"OooooXXX                        ",
"OOoooXXX                        ",
"OOoXoXXX                        ",
"OOoooXXX                        ",
"OOoXoXXX                        ",
"OOoXoXXX                        ",
"OOoooXXX                        ",
"OooXoXXX                        ",
"OOoXoXXX                        ",
"OOoXoXXX                        ",
"OOoXoXXX                        ",
"OooXoXXX                        ",
"OooXoXXX                        ",
"OooooXXX                        ",
"OooooXXX                        ",
"OooooXXX                        ",
"OOoooXXX                        ",
"OOoXoXXX                        ",
"OOoooXXX                        ",
"OOoXoXXX                        ",
"OOoXXXXX                        ",
"OoXXXXX.                        ",
"OoXXXX..                        "
};
