/* XPM */
static char *ebefd119062a450ad0e236e310411c22xWmMP51LkSwabx1R[] = {
/* columns rows colors chars-per-pixel */
"32 32 5 1 ",
"  c #211F30",
". c #843346",
"X c #A14744",
"o c #B96E54",
"O c #CF9E6E",
/* pixels */
"                        X.XXXooo",
"                        .XXXXXoO",
"                        XXXXXoOO",
"                        XXXXXoOO",
"                        XXXoXoOO",
"                        XXXoooOO",
"                        XXXooooO",
"                        XXXooooO",
"                        XXXooooO",
"                        XXXooooO",
"                        XXXoooOO",
"                        XXXoXoOO",
"                        XXXoooOO",
"                        XXXoXoOO",
"                        XXXoXoOO",
"                        XXXoooOO",
"                        XXXoXooO",
"                        XXXoXoOO",
"                        XXXoXoOO",
"                        XXXoXoOO",
"                        XXXoXooO",
"                        XXXoXooO",
"                        XXXooooO",
"                        XXXooooO",
"                        XXXooooO",
"                        XXXoooOO",
"                        XXXoXoOO",
"                        XXXoooOO",
"                        XXXoXoOO",
"                        XXXXXoOO",
"                        .XXXXXoO",
"                        ..XXXXoO"
};
