/* XPM */
static char *out[] = {
/* columns rows colors chars-per-pixel */
"32 32 7 1 ",
"  c #FF00FF",
". c #7E3125",
"X c #434A5F",
"o c #DD442C",
"O c #FC683B",
"+ c #959AB1",
"@ c #DCE1E7",
/* pixels */
" XXXX                           ",
"XXXXXX .......                  ",
"XX@@XX...........               ",
"XX@@XX..oOoOO.....              ",
"XX++OOOOooOOOoOO..              ",
"XXXXOOOOoOoOOoOOO..             ",
"XX++OOOOooOOOoOOO..             ",
"XX++OOOOoOoOOoOOO..             ",
"XX++OOOOooOOOoOOO..             ",
"XX++OOOOoOoOOoOOO..             ",
"XXXXOOOOooOOOoOOO..             ",
"XX++OOOO.....oOO..              ",
"XX++XX............              ",
"XX++XX...   .....               ",
"XX++XX                          ",
"XX++XX                          ",
"XX++XX                          ",
"XX++XX                          ",
"XX++XX                          ",
"XX++XX                          ",
"XX++XX                          ",
"XX++XX                          ",
"XX++XX                          ",
"XX@@XX                          ",
"XX@@XX                          ",
"XX@@XX                          ",
"XX@@XX                          ",
"XX@@XX                          ",
"XX@@XX                          ",
"XX@@XX                          ",
"XX@@XX                          ",
"XX@@XX                          "
};
