/* XPM */
static char *out[] = {
/* columns rows colors chars-per-pixel */
"32 32 166 2 ",
"   c #FF00FF",
".  c #501C18",
"X  c #61091B",
"o  c #740A1B",
"O  c #68121B",
"+  c #75151E",
"@  c #602113",
"#  c #76361A",
"$  c #6A0F21",
"%  c #6C1121",
"&  c #661D25",
"*  c #751522",
"=  c #741C24",
"-  c #7E1B24",
";  c #7D1424",
":  c #5D242D",
">  c #512A2C",
",  c #5C363E",
"<  c #6D242D",
"1  c #78272F",
"2  c #732B33",
"3  c #62363D",
"4  c #6D3038",
"5  c #7B333A",
"6  c #71353B",
"7  c #6A4033",
"8  c #734038",
"9  c #714434",
"0  c #5F3940",
"q  c #563645",
"w  c #683D44",
"e  c #703C43",
"r  c #68484F",
"t  c #78544F",
"y  c #7D5344",
"u  c #724D53",
"i  c #6D5256",
"p  c #785258",
"a  c #7E6258",
"s  c #880E17",
"d  c #910F19",
"f  c #960E17",
"g  c #8D1019",
"h  c #95131C",
"j  c #9B141C",
"k  c #A20912",
"l  c #BA0F18",
"z  c #B60E17",
"x  c #AA1019",
"c  c #A3121A",
"v  c #B5151D",
"b  c #B9141C",
"n  c #893A12",
"m  c #851923",
"M  c #921720",
"N  c #9E1C23",
"B  c #951A22",
"V  c #A51921",
"C  c #AB1A21",
"Z  c #B51820",
"A  c #BA1C23",
"S  c #962126",
"D  c #813F24",
"F  c #812F36",
"G  c #9A2D35",
"H  c #84363D",
"J  c #A22228",
"K  c #AA2329",
"L  c #B12127",
"P  c #B92127",
"I  c #B3242A",
"U  c #BB252B",
"Y  c #B6282D",
"T  c #BD282F",
"R  c #A52B32",
"E  c #BD2D33",
"W  c #D00F18",
"Q  c #DA0D15",
"!  c #DC161E",
"~  c #C01C23",
"^  c #CC1A21",
"/  c #D61B23",
"(  c #C5252C",
")  c #CB262C",
"_  c #C5282F",
"`  c #C9282F",
"'  c #DB242B",
"]  c #D92A2F",
"[  c #C52D33",
"{  c #DD2A30",
"}  c #DF3136",
"|  c #D53337",
" . c #EA282E",
".. c #E1272D",
"X. c #E92F34",
"o. c #E63137",
"O. c #E6353A",
"+. c #E9383C",
"@. c #93490D",
"#. c #844E1C",
"$. c #8A561C",
"%. c #8C5A1E",
"&. c #87531F",
"*. c #B0601C",
"=. c #8B4E24",
"-. c #924622",
";. c #8D5D21",
":. c #8C5127",
">. c #B77A27",
",. c #C6661B",
"<. c #D87B1D",
"1. c #D07827",
"2. c #E03C41",
"3. c #886F5E",
"4. c #89715E",
"5. c #886468",
"6. c #8A7360",
"7. c #C6494D",
"8. c #D04146",
"9. c #CB5658",
"0. c #D85356",
"q. c #E8494C",
"w. c #E84F52",
"e. c #E45B5C",
"r. c #F1595A",
"t. c #CB5E60",
"y. c #CF6365",
"u. c #D06667",
"i. c #D36A6A",
"p. c #D96465",
"a. c #D47675",
"s. c #D47D7B",
"d. c #E76667",
"f. c #E86667",
"g. c #E76869",
"h. c #EA6D6C",
"j. c #F46666",
"k. c #E77B7A",
"l. c #F69526",
"z. c #F1B129",
"x. c #F8B33C",
"c. c #FFBC34",
"v. c #FFC73E",
"b. c #A38043",
"n. c #C8A245",
"m. c #FFD65A",
"M. c #DA8987",
"N. c #DC8B88",
"B. c #DB928E",
"V. c #E88280",
"C. c #F78380",
"Z. c #F98E8A",
"A. c #E0938F",
"S. c #FA948F",
"D. c #EE9A96",
"F. c #E19390",
"G. c #EBA49F",
"H. c #E7BCB4",
"J. c #F2CFC5",
"K. c #F7E7DC",
"L. c #FAE6DA",
"P. c #F7E6DB",
"I. c #FBF4E8",
"U. c #FDFBEE",
"Y. c #F9F3E7",
"T. c #FFFFF1",
/* pixels */
"                                                                ",
"                                                                ",
"                                                                ",
"                                                                ",
"                                                                ",
"      x.                                                        ",
"    b.n.4.                                                      ",
"  7 x.m.@.*.                                                    ",
"    *.,.8                                                       ",
"    i .     p 5 R ~ ~ G 5 5.                                    ",
"    3.#.q < A X.} +.+.o.X.` V 5 u             H <               ",
"    4.$.o ] O.U ~ / ' { ] +.X.' ^ B M d h g L  .F               ",
"    4.$.* | ( 7.M.A.i.p.f.' k.q.h.r.j.S.C.Z.q.) :               ",
"    4.$.$ I v M.T.T.T.B.T.O.I.e.T.D.k.K.T.J.w.f                 ",
"    4.$.% Y v M.T.E E A G.T.V.! T.D.Q e.K...` +                 ",
"    4.$.$ I c s.U.I.a.z 0.U.9./ T.D./ g.K.| c 3                 ",
"    4.;.% J f M.T.U U A B.T.H.z T.D.! d.P.[ h ,                 ",
"    6.$.% S b N.T.T.T.N.T.E K.9.T.G.W h.Y.[ L =                 ",
"    6.;.% K P 7.M.A.i.u.t.v a.7.u.9.Z 8.s.T _ V r               ",
"    6.$.% U [ C k k x b A [ Z P A P V N Z U I ( <               ",
"    6.$.; P s & , 3 3 e 1 h U ( E E U J S K U ( 2               ",
"    6.%.X 6                 4 - j U _ ` _ U _ j :               ",
"    6.$.                        i % O - m * O w                 ",
"    6.;.                                                        ",
"    4.;.                                                        ",
"    6.;.                                                        ",
"    6.$.                                                        ",
"    a #                                                         ",
"    >.z.y                                                       ",
"  6 ,.1.n                                                       ",
"t <.m.z.l.-.                                                    ",
"> # =.=.=.@                                                     "
};
