/* XPM */
static char *out[] = {
/* columns rows colors chars-per-pixel */
"32 32 10 1 ",
"  c #FF00FF",
". c #2C121D",
"X c #7E3125",
"o c #AC6D00",
"O c #DD442C",
"+ c #FC683B",
"@ c #F69526",
"# c #F8B33C",
"$ c gold",
"% c white",
/* pixels */
"      ...                       ",
"     .@$$.                      ",
"    .o#$$%.                     ",
"    .o##$$.                     ",
"    .oo#$$.                     ",
"     .ooo. XXXXXXXXX            ",
"      ... X+OOOO++++X           ",
"      .#.X++OO++O+++OX          ",
"      .+.+++OOOO++++OOXXXXX     ",
"      .+.+++OO++O+++OOO++++X    ",
"      .+.+++OOOO++++OO++++++X   ",
"      .+.+++OO++O+++OOO++++++X  ",
"      .+.+++OOOO++++OO+++++++X  ",
"      .+.+++OO++O+++OOO++++++X  ",
"      .+.+++OOOO++++OO+++++++X  ",
"      .+.++XXXXXXX++OOO++++++X  ",
"      .+.+X       X+OO++++++X   ",
"      .$.X         XOOO++++X    ",
"      .$.           XXXXXXX     ",
"      .$.                       ",
"      .$.                       ",
"      .#.                       ",
"      .@.                       ",
"      .@.                       ",
"      .o.                       ",
"     .o@$.                      ",
"    .o@$$$.                     ",
"    .o$$$$.                     ",
"   .o@$$$$$.                    ",
"  .o@##$$$$$.                   ",
"  .oooo#@$@@.                   ",
"  ...........                   "
};
