/* XPM */
static char *fd354152a79e4b1cced103fa8777baebgAlsxEJOSUZZnKoQ[] = {
/* columns rows colors chars-per-pixel */
"64 64 3 1 ",
"  c None",
". c #BCF2F5",
"X c white",
/* pixels */
"                                                                ",
"           XXXXXXXXXXXX                                         ",
"          XXXXXXXXXXXXXX                                        ",
"         ..........XXXXXX                                       ",
"         ...........XXXXXX                                      ",
"      XXX...........XXXXXXX                                     ",
"    XXXXX...........XXXXXXXX                                    ",
"   XXXXXX.......XXXXXXXXXXXXX                                   ",
"  .XXXXXXX.....XXXXXXXXXXXXXXX                                  ",
"  XXXXXXXX.....XXXXXXXXXXXXXXXX                                 ",
" .XXXXXXX.......XXXXXXXXX.XXXXX                                 ",
" ..XXXXX.........XXX.....XXXXXX                                 ",
" ...XXX..................XXXXXX                                 ",
" ........................XXXXXX                                 ",
" .................XXX.XXXXXXXXX                                 ",
" .....................XXXXXXXXX                                 ",
"  .....................XXXXXXXX                                 ",
"   .........    .......XXXXXXX.                                 ",
"     ......      .....X.......                                  ",
"                  ...........                                   ",
"                   .........                                    ",
"                                                                ",
"                                                                ",
"                                                                ",
"                                                                ",
"                                                                ",
"                                                                ",
"                                                                ",
"                                                                ",
"                                                                ",
"                                                                ",
"                                                                ",
"                                                                ",
"                                                                ",
"                                                                ",
"                                                                ",
"                                                                ",
"                                                                ",
"                                                                ",
"                                                                ",
"                                                                ",
"                                                                ",
"                                                                ",
"                                                                ",
"                                                                ",
"                                                                ",
"                                                                ",
"                                                                ",
"                                                                ",
"                                                                ",
"                                                                ",
"                                                                ",
"                                                                ",
"                                                                ",
"                                                                ",
"                                                                ",
"                                                                ",
"                                                                ",
"                                                                ",
"                                                                ",
"                                                                ",
"                                                                ",
"                                                                ",
"                                                                "
};
