/* XPM */
static char *out[] = {
/* columns rows colors chars-per-pixel */
"32 32 15 1 ",
"  c #FF00FF",
". c #232323",
"X c #3D2D26",
"o c gray22",
"O c #5E1F00",
"+ c #462F26",
"@ c #69423A",
"# c gray30",
"$ c #7C5E4F",
"% c #8D3000",
"& c #C56400",
"* c #E17C00",
"= c #8A7461",
"- c #FF9500",
"; c #FFB300",
/* pixels */
"                                ",
"            %%%%%%%%%           ",
"          %%&&&%-%&&&%%         ",
"        %%&&&%%&*&%%&&&%%       ",
"       %&*&--*&%%%&*--*&&%      ",
"      %&*&---*%&&&%*---*&&%     ",
"     %&*&-;-*%*---*%*-;-*&&%    ",
"     %*&----&*-----*&----*&%    ",
"    %&*&---*&--;;;--&*---*&&%   ",
"    %&&----&*--;;;--*&----*&%   ",
"    %&&----&*-------*&----*&O   ",
"    %&&*---&*-------*O---**OO   ",
"    %&&**--&*-------OOO-**&OO   ",
"    %&%****&**-----OOOOO*O%&%   ",
"     %%****&********OOOO*OO%    ",
"     %%&***&*********&***O%%    ",
"      %&&**&*******O*&***&O     ",
"       %&&&%&*******OO**OO      ",
"        %&&%&&&&&&&&&OOOO       ",
"         %%&%&&&&&&&%&%%        ",
"           %%%%%%%%%%%          ",
"            X+@$$==$@X          ",
"            X@======$X          ",
"            X$==X===@X          ",
"            X@$$$X@++X          ",
"            X+$===X=+.          ",
"             X@$==X#o.          ",
"             XX@$@Xo.X          ",
"            X@$XXXo.++X         ",
"           X$==$@XX+++X         ",
"           X$===X  XXX          ",
"            XXXX                "
};
